<?xml version="1.0" standalone="no"?>
<!DOCTYPE svg PUBLIC "-//W3C//DTD SVG 20010904//EN"
 "http://www.w3.org/TR/2001/REC-SVG-20010904/DTD/svg10.dtd">
<svg version="1.0" xmlns="http://www.w3.org/2000/svg"
 width="1025.000000pt" height="1025.000000pt" viewBox="0 0 1025.000000 1025.000000"
 preserveAspectRatio="xMidYMid meet">
<metadata>
Created by potrace 1.11, written by Peter Selinger 2001-2013
</metadata>
<g transform="translate(0.000000,1025.000000) scale(0.100000,-0.100000)"
fill="#000000" stroke="none">
<path d="M365 10236 c-178 -44 -321 -193 -355 -371 -8 -44 -10 -1293 -8 -4770
3 -4572 4 -4711 22 -4760 53 -142 168 -255 307 -302 52 -17 233 -18 4789 -18
4556 0 4737 1 4789 18 142 48 260 166 308 308 17 52 18 233 18 4789 0 4556 -1
4737 -18 4789 -47 139 -160 254 -302 307 -49 18 -187 19 -4775 21 -3718 1
-4736 -1 -4775 -11z m2875 -3208 c41 -20 91 -54 111 -75 54 -56 1229 -1680
1250 -1728 24 -52 24 -138 0 -190 -21 -48 -1196 -1672 -1250 -1728 -20 -21
-70 -55 -111 -75 l-75 -37 -795 -2 c-627 -2 -800 0 -820 10 -32 16 -47 59 -34
95 6 15 145 212 310 437 498 680 1004 1383 1004 1395 0 12 -506 715 -1004
1395 -165 226 -304 422 -310 437 -13 36 2 79 34 95 20 10 193 12 820 10 l795
-2 75 -37z m4110 0 c41 -20 91 -54 111 -75 53 -55 1218 -1679 1240 -1727 24
-53 24 -139 0 -191 -21 -48 -1188 -1673 -1240 -1728 -20 -21 -70 -55 -111 -75
l-75 -37 -1305 0 -1305 0 -55 27 c-31 15 -74 43 -97 63 -33 28 -372 477 -380
503 -1 4 191 275 428 602 237 327 440 613 452 635 15 29 21 58 21 105 0 47 -6
76 -21 105 -12 22 -215 308 -452 635 -237 327 -429 598 -428 602 3 12 309 429
341 466 40 45 107 90 169 113 50 18 104 18 1342 16 l1290 -2 75 -37z"/>
<path d="M6565 6497 c-27 -13 -58 -33 -67 -43 -27 -31 -58 -106 -58 -144 0
-38 31 -113 58 -143 43 -48 136 -75 199 -58 120 33 190 157 149 266 -23 59
-50 92 -98 116 -63 32 -124 34 -183 6z"/>
</g>
</svg>
